<?xml version="1.0" encoding="UTF-8" standalone="no"?>
<svg width="60px" height="60px" viewBox="0 0 60 60" version="1.1" xmlns="http://www.w3.org/2000/svg" xmlns:xlink="http://www.w3.org/1999/xlink" style="background: #FFFFFF;">
    <!-- Generator: Sketch 43.2 (39069) - http://www.bohemiancoding.com/sketch -->
    <title>logo_placeholder_9</title>
    <desc>Created with Sketch.</desc>
    <defs></defs>
    <g id="Symbols" stroke="none" stroke-width="1" fill="none" fill-rule="evenodd">
        <g id="logo_placeholder_9">
            <g id="Page-1">
                <polygon id="Fill-1" fill="#EDF0EF" opacity="0.5" points="0 60 60 60 60 0 0 0"></polygon>
                <path d="M16.368,43.096 C17.312,43.096 17.952,42.648 18.4,42.04 L17.832,41.728 C17.528,42.184 16.976,42.504 16.368,42.504 C15.2,42.504 14.312,41.6 14.312,40.336 C14.312,39.064 15.2,38.168 16.368,38.168 C16.976,38.168 17.528,38.496 17.832,38.944 L18.392,38.632 C17.968,38.032 17.312,37.576 16.368,37.576 C14.832,37.576 13.624,38.696 13.624,40.336 C13.624,41.976 14.832,43.096 16.368,43.096 Z M20.912,43.096 C19.736,43.096 19,42.184 19,41.064 C19,39.944 19.736,39.04 20.912,39.04 C22.088,39.04 22.824,39.944 22.824,41.064 C22.824,42.184 22.088,43.096 20.912,43.096 Z M20.912,42.56 C21.736,42.56 22.192,41.856 22.192,41.064 C22.192,40.28 21.736,39.576 20.912,39.576 C20.088,39.576 19.624,40.28 19.624,41.064 C19.624,41.856 20.088,42.56 20.912,42.56 Z M29.064,43 L29.064,40.208 C29.064,39.432 28.688,39.04 27.984,39.04 C27.424,39.04 26.904,39.408 26.688,39.76 C26.576,39.36 26.24,39.04 25.648,39.04 C25.08,39.04 24.56,39.448 24.4,39.696 L24.4,39.136 L23.8,39.136 L23.8,43 L24.4,43 L24.4,40.176 C24.608,39.864 25.024,39.576 25.416,39.576 C25.92,39.576 26.128,39.888 26.128,40.376 L26.128,43 L26.728,43 L26.728,40.168 C26.928,39.864 27.352,39.576 27.752,39.576 C28.248,39.576 28.464,39.888 28.464,40.376 L28.464,43 L29.064,43 Z M32.168,43.096 C31.64,43.096 31.176,42.848 30.864,42.416 L30.864,44.472 L30.264,44.472 L30.264,39.136 L30.864,39.136 L30.864,39.712 C31.144,39.32 31.624,39.04 32.168,39.04 C33.184,39.04 33.888,39.808 33.888,41.064 C33.888,42.312 33.184,43.096 32.168,43.096 Z M32.016,42.56 C32.792,42.56 33.256,41.92 33.256,41.064 C33.256,40.208 32.792,39.576 32.016,39.576 C31.544,39.576 31.072,39.856 30.864,40.192 L30.864,41.936 C31.072,42.272 31.544,42.56 32.016,42.56 Z M37.856,43 L37.256,43 L37.256,42.56 C36.936,42.912 36.496,43.096 35.976,43.096 C35.32,43.096 34.624,42.656 34.624,41.816 C34.624,40.952 35.32,40.544 35.976,40.544 C36.504,40.544 36.944,40.712 37.256,41.072 L37.256,40.376 C37.256,39.856 36.84,39.56 36.28,39.56 C35.816,39.56 35.44,39.728 35.096,40.096 L34.816,39.68 C35.232,39.248 35.728,39.04 36.36,39.04 C37.176,39.04 37.856,39.408 37.856,40.344 L37.856,43 Z M36.192,42.664 C36.616,42.664 37.024,42.504 37.256,42.184 L37.256,41.456 C37.024,41.136 36.616,40.976 36.192,40.976 C35.632,40.976 35.24,41.328 35.24,41.824 C35.24,42.312 35.632,42.664 36.192,42.664 Z M42.264,43 L42.264,40.288 C42.264,39.448 41.84,39.04 41.032,39.04 C40.456,39.04 39.928,39.376 39.656,39.696 L39.656,39.136 L39.056,39.136 L39.056,43 L39.656,43 L39.656,40.176 C39.88,39.864 40.328,39.576 40.8,39.576 C41.32,39.576 41.664,39.792 41.664,40.472 L41.664,43 L42.264,43 Z M43.248,44.512 C43.36,44.544 43.56,44.568 43.688,44.568 C44.2,44.56 44.592,44.344 44.824,43.784 L46.76,39.136 L46.104,39.136 L44.824,42.304 L43.536,39.136 L42.888,39.136 L44.504,43.04 L44.248,43.624 C44.112,43.944 43.936,44.032 43.672,44.032 C43.576,44.032 43.432,44.008 43.344,43.968 L43.248,44.512 Z M24.856,51 L24.856,50.408 L22.376,50.408 L22.376,45.664 L21.712,45.664 L21.712,51 L24.856,51 Z M27.456,51.096 C26.28,51.096 25.544,50.184 25.544,49.064 C25.544,47.944 26.28,47.04 27.456,47.04 C28.632,47.04 29.368,47.944 29.368,49.064 C29.368,50.184 28.632,51.096 27.456,51.096 Z M27.456,50.56 C28.28,50.56 28.736,49.856 28.736,49.064 C28.736,48.28 28.28,47.576 27.456,47.576 C26.632,47.576 26.168,48.28 26.168,49.064 C26.168,49.856 26.632,50.56 27.456,50.56 Z M31.896,52.568 C31.24,52.568 30.792,52.44 30.336,51.992 L30.64,51.544 C30.96,51.928 31.344,52.072 31.896,52.072 C32.536,52.072 33.136,51.76 33.136,50.912 L33.136,50.36 C32.856,50.752 32.384,51.048 31.84,51.048 C30.832,51.048 30.12,50.296 30.12,49.048 C30.12,47.808 30.824,47.04 31.84,47.04 C32.36,47.04 32.824,47.296 33.136,47.72 L33.136,47.136 L33.736,47.136 L33.736,50.888 C33.736,52.168 32.84,52.568 31.896,52.568 Z M31.984,50.52 C32.464,50.52 32.928,50.224 33.136,49.888 L33.136,48.2 C32.928,47.864 32.464,47.576 31.984,47.576 C31.208,47.576 30.744,48.192 30.744,49.048 C30.744,49.896 31.208,50.52 31.984,50.52 Z M36.624,51.096 C35.448,51.096 34.712,50.184 34.712,49.064 C34.712,47.944 35.448,47.04 36.624,47.04 C37.8,47.04 38.536,47.944 38.536,49.064 C38.536,50.184 37.8,51.096 36.624,51.096 Z M36.624,50.56 C37.448,50.56 37.904,49.856 37.904,49.064 C37.904,48.28 37.448,47.576 36.624,47.576 C35.8,47.576 35.336,48.28 35.336,49.064 C35.336,49.856 35.8,50.56 36.624,50.56 Z" id="Company-Logo" fill="#B7B7B7"></path>
                <path d="M23.1487603,24.4579116 C22.7108351,24.3350006 22.0876163,24.1588191 21.2791037,23.9293671 L20.8193347,23.7904465 C20.7794275,23.7809765 20.7576672,23.7675654 20.7540539,23.7502131 L20.7473601,23.7384932 C20.3110526,22.9515273 20.0666121,21.9801131 20.0140388,20.8242504 C19.9674545,19.9128757 20.1612095,19.0137639 20.5953039,18.126915 C21.083329,17.2317827 21.5058603,16.725307 21.8628977,16.6074878 C22.0103541,16.5330933 22.1832978,16.4675228 22.3817287,16.4107763 C22.2699068,15.9725308 22.1118739,15.3482256 21.9076301,14.537861 L21.7988385,14.0728192 C21.7871399,14.033747 21.7879504,14.0083185 21.8012699,13.9965337 L21.80814,13.984913 C22.2759749,13.2160346 23.0005257,12.5200127 23.9817925,11.8968472 C24.7529374,11.4010766 25.6335621,11.1182257 26.6236666,11.0482947 C27.6479564,11.0206267 28.3007121,11.1309334 28.5819336,11.3792149 C28.7205105,11.4688918 28.8641396,11.5849093 29.012821,11.7272676 C29.338924,11.4119334 29.8041083,10.963809 30.408374,10.3828944 L30.7593537,10.0567679 C30.7875616,10.0271667 30.8101319,10.0151501 30.8270644,10.0207181 L30.8406284,10.0208188 C31.7447715,10.0389034 32.7137628,10.314294 33.7476022,10.8469904 C34.5653316,11.262597 35.2522017,11.8788593 35.8082127,12.6957772 C36.3444759,13.5632402 36.5747,14.1800232 36.4988851,14.5461261 C36.4900046,14.7101951 36.4606891,14.8917811 36.4109386,15.0908838 C36.8488643,15.213795 37.4720821,15.3899762 38.280592,15.6194274 L38.740359,15.7583434 C38.7802663,15.7678168 38.8020265,15.7812295 38.8056399,15.7985818 L38.8123325,15.8103018 C39.24864,16.5972673 39.4930808,17.5686803 39.545655,18.7245407 C39.5922398,19.6359153 39.3984847,20.5350284 38.9643899,21.42188 C38.4763632,22.317011 38.0538324,22.8234863 37.6967976,22.9413059 C37.5493406,23.0156994 37.3763963,23.0812696 37.1779648,23.1380166 C37.2897865,23.5762613 37.4478192,24.2005654 37.6520629,25.0109289 L37.7608553,25.4759746 C37.7725528,25.5150462 37.7717417,25.5404743 37.7584219,25.5522589 L37.7515541,25.5638781 C37.2837172,26.332759 36.5591662,27.0287823 35.5779012,27.6519477 C34.8067569,28.1477158 33.9261314,28.4305653 32.9360248,28.5004963 C31.9117358,28.5281669 31.2589809,28.4178598 30.9777602,28.169575 C30.839184,28.0799012 30.6955563,27.9638868 30.5468771,27.8215317 C30.2207742,28.1368657 29.7555897,28.58499 29.1513236,29.1659044 L28.8003439,29.4920286 C28.772136,29.5216295 28.7495658,29.5336482 28.7326332,29.5280846 L28.7190689,29.52798 C27.8149258,29.5098964 26.8459345,29.2345059 25.8120951,28.7018084 C24.994366,28.2862018 24.3074958,27.6699395 23.7514845,26.8530216 C23.2152209,25.9855594 22.9849969,25.3687764 23.0608126,25.0026727 C23.0696931,24.8386029 23.099009,24.6570159 23.1487603,24.4579116 Z M23.9912347,22.3059279 C24.0110089,22.2978957 24.0377575,22.4018472 24.0714804,22.6177826 C25.0017191,22.3932343 25.5910428,22.3628775 25.8394513,22.5267123 C25.8755168,22.5522675 25.9021579,22.5829197 25.9193745,22.6186687 C26.0262233,22.9303359 26.208662,23.3139996 26.4666906,23.7696598 C26.6568035,24.1033004 26.8249284,24.3469142 26.9710651,24.5005012 C27.5003815,25.130659 28.0990452,25.5904008 28.7670562,25.8797266 C28.8783155,25.9310265 28.9867126,25.9780092 29.0922475,26.0206748 C29.0951254,25.9996408 29.1991122,26.0285997 29.4042077,26.1075515 C29.6735912,25.1949045 29.9417913,24.6726739 30.208808,24.5408598 C30.2491184,24.5226069 30.2891588,24.515011 30.3289292,24.5180718 C30.6540297,24.5819741 31.079685,24.6168371 31.6058952,24.6226606 C31.9917815,24.6259073 32.2881986,24.6030598 32.4951466,24.5541181 C33.3091079,24.4137742 34.0091919,24.1285556 34.5953988,23.6984626 C34.6957458,23.6283853 34.7908986,23.5586121 34.8808572,23.4891429 C34.863982,23.4761393 34.9412225,23.4011498 35.1125788,23.2641742 C34.4517221,22.5760749 34.130598,22.084201 34.1492067,21.7885527 C34.1534515,21.7447444 34.1668506,21.7064958 34.1894039,21.6738068 C34.4076569,21.4260422 34.650873,21.0772411 34.9190523,20.6274037 C35.1148274,20.2970105 35.2431212,20.0305488 35.3039338,19.8280187 C35.5885774,19.057519 35.6899974,18.3125592 35.6081937,17.5931392 C35.5972816,17.4717624 35.5840374,17.3550067 35.5684611,17.242872 C35.5486867,17.2508981 35.5219384,17.1469468 35.4882161,16.9310182 C34.5579779,17.1555652 33.9686545,17.1859217 33.720246,17.0220877 C33.6841804,16.9965327 33.6575394,16.9658804 33.6403228,16.9301309 C33.5334743,16.6184642 33.3510353,16.2348002 33.0930059,15.779139 C32.9028932,15.4454989 32.7347686,15.2018851 32.5886322,15.0482976 C32.0593161,14.4181406 31.4606525,13.9583992 30.7926414,13.6690734 C30.6813801,13.6177727 30.5729811,13.5707892 30.4674443,13.528123 C30.464557,13.549151 30.3605709,13.5201893 30.1554861,13.441238 C29.8861012,14.3538884 29.6178993,14.876119 29.3508803,15.0079297 C29.3105736,15.0261849 29.2705342,15.0337814 29.2307622,15.0307192 C28.9056625,14.9668195 28.4800086,14.9319577 27.9538005,14.9261339 C27.5679103,14.9228849 27.2714922,14.9457319 27.064546,14.9946748 C26.2505855,15.1350201 25.5505009,15.4202393 24.9642922,15.8503324 C24.8639459,15.9204088 24.7687937,15.9901813 24.6788357,16.0596497 C24.6957069,16.0726579 24.618467,16.1476482 24.4471161,16.2846207 C25.107971,16.9727198 25.4290947,17.4645936 25.4104871,17.7602422 C25.4062417,17.8040506 25.3928424,17.8422987 25.3702891,17.8749865 C25.1520366,18.1227507 24.9088202,18.4715519 24.6406399,18.9213901 C24.4448658,19.251784 24.3165725,19.5182456 24.25576,19.7207747 C23.9711163,20.4912744 23.8696967,21.2362341 23.9515012,21.9556538 C23.9624136,22.0770331 23.975658,22.1937911 23.9912347,22.3059279 Z" id="Combined-Shape" fill="#B7B7B7" fill-rule="nonzero"></path>
            </g>
        </g>
    </g>
</svg>